HIERARCHY
ROOT Hips
{
	OFFSET 0.000000 0.000000 0.000000
	CHANNELS 6 Xposition Yposition Zposition Zrotation Yrotation Xrotation 
	JOINT LHipJoint
	{
		OFFSET 0.000000 0.000000 0.000000
		CHANNELS 3 Zrotation Yrotation Xrotation
		JOINT LeftUpLeg
		{
			OFFSET 1.363060 -1.794630 0.839290
			CHANNELS 3 Zrotation Yrotation Xrotation
			JOINT LeftLeg
			{
				OFFSET 2.448110 -6.726130 0.000000
				CHANNELS 3 Zrotation Yrotation Xrotation
				JOINT LeftFoot
				{
					OFFSET 2.562200 -7.039590 0.000000
					CHANNELS 3 Zrotation Yrotation Xrotation
					JOINT LeftToeBase
					{
						OFFSET 0.157640 -0.433110 2.322550
						CHANNELS 3 Zrotation Yrotation Xrotation
						End Site
						{
							OFFSET 0.000000 0.000000 0.000000
						}
					}
				}
			}
		}
	}
	JOINT RHipJoint
	{
		OFFSET 0.000000 0.000000 0.000000
		CHANNELS 3 Zrotation Yrotation Xrotation
		JOINT RightUpLeg
		{
			OFFSET -1.305520 -1.794630 0.839290
			CHANNELS 3 Zrotation Yrotation Xrotation
			JOINT RightLeg
			{
				OFFSET -2.542530 -6.985550 0.000000
				CHANNELS 3 Zrotation Yrotation Xrotation
				JOINT RightFoot
				{
					OFFSET -2.568260 -7.056230 0.000000
					CHANNELS 3 Zrotation Yrotation Xrotation
					JOINT RightToeBase
					{
						OFFSET -0.164730 -0.452590 2.363150
						CHANNELS 3 Zrotation Yrotation Xrotation
						End Site
						{
							OFFSET 0.000000 0.000000 0.000000
						}
					}
				}
			}
		}
	}
	JOINT LowerBack
	{
		OFFSET 0.000000 0.000000 0.000000
		CHANNELS 3 Zrotation Yrotation Xrotation
		JOINT Spine
		{
			OFFSET 0.028270 2.035590 -0.193380
			CHANNELS 3 Zrotation Yrotation Xrotation
			JOINT Spine1
			{
				OFFSET 0.056720 2.048850 -0.042750
				CHANNELS 3 Zrotation Yrotation Xrotation
				JOINT Neck
				{
					OFFSET 0.000000 0.000000 0.000000
					CHANNELS 3 Zrotation Yrotation Xrotation
					JOINT Neck1
					{
						OFFSET -0.054170 1.746240 0.172020
						CHANNELS 3 Zrotation Yrotation Xrotation
						JOINT Head
						{
							OFFSET 0.104070 1.761360 -0.123970
							CHANNELS 3 Zrotation Yrotation Xrotation
							End Site
							{
								OFFSET 0.000000 0.000000 0.000000
							}
						}
					}
				}
				JOINT LeftShoulder
				{
					OFFSET 0.000000 0.000000 0.000000
					CHANNELS 3 Zrotation Yrotation Xrotation
					JOINT LeftArm
					{
						OFFSET 3.362410 1.200890 -0.311210
						CHANNELS 3 Zrotation Yrotation Xrotation
						JOINT LeftForeArm
						{
							OFFSET 4.983000 -0.000000 -0.000000
							CHANNELS 3 Zrotation Yrotation Xrotation
							JOINT LeftHand
							{
								OFFSET 3.483560 -0.000000 -0.000000
								CHANNELS 3 Zrotation Yrotation Xrotation
								JOINT LeftFingerBase
								{
									OFFSET 0.000000 0.000000 0.000000
									CHANNELS 3 Zrotation Yrotation Xrotation
									JOINT LeftHandIndex1
									{
										OFFSET 0.715260 -0.000000 -0.000000
										CHANNELS 3 Zrotation Yrotation Xrotation
										End Site
										{
											OFFSET 0.000000 0.000000 0.000000
										}
									}
								}
								JOINT LThumb
								{
									OFFSET 0.000000 0.000000 0.000000
									CHANNELS 3 Zrotation Yrotation Xrotation
									End Site
									{
										OFFSET 0.000000 0.000000 0.000000
									}
								}
							}
						}
					}
				}
				JOINT RightShoulder
				{
					OFFSET 0.000000 0.000000 0.000000
					CHANNELS 3 Zrotation Yrotation Xrotation
					JOINT RightArm
					{
						OFFSET -3.136600 1.374050 -0.404650
						CHANNELS 3 Zrotation Yrotation Xrotation
						JOINT RightForeArm
						{
							OFFSET -5.241900 -0.000000 -0.000000
							CHANNELS 3 Zrotation Yrotation Xrotation
							JOINT RightHand
							{
								OFFSET -3.444170 -0.000000 -0.000000
								CHANNELS 3 Zrotation Yrotation Xrotation
								JOINT RightFingerBase
								{
									OFFSET 0.000000 0.000000 0.000000
									CHANNELS 3 Zrotation Yrotation Xrotation
									JOINT RightHandIndex1
									{
										OFFSET -0.622530 -0.000000 -0.000000
										CHANNELS 3 Zrotation Yrotation Xrotation
										End Site
										{
											OFFSET 0.000000 0.000000 0.000000
										}
									}
								}
								JOINT RThumb
								{
									OFFSET 0.000000 0.000000 0.000000
									CHANNELS 3 Zrotation Yrotation Xrotation
									End Site
									{
										OFFSET 0.000000 0.000000 0.000000
									}
								}
							}
						}
					}
				}
			}
		}
	}
}
MOTION
Frames: 10
Frame Time: 0.008333
-7.309062 17.936120 -0.434837 179.301883 87.457171 178.755857 -1.483872 -0.809899 0.054700 -7.820428 2.235598 -25.844854 2.178661 13.406655 40.213782 7.523684 -22.569064 12.672151 0.125900 -2.287500 -6.300900 2.736403 0.139211 0.632109 11.923826 8.141927 -19.462536 0.904849 -9.457891 26.390942 0.054863 -3.101786 9.612913 -0.078900 -1.811900 4.986000 2.366315 -0.753642 22.154209 3.116251 0.084788 6.580709 -0.142841 0.709210 -5.763590 2.069555 -0.443486 -6.668357 -2.810666 -0.800182 3.027415 -3.162500 -0.505200 0.966700 -1.457735 -5.498684 0.732382 -69.568218 10.621542 36.878457 28.661529 -38.636701 -12.615391 0.667721 -1.444127 8.175014 2.825272 1.279593 0.089600 -7.125000 0.000000 0.000000 -19.622100 32.136100 6.515800 1.852889 6.500297 2.362486 70.635009 -16.014086 34.563054 -25.915763 33.910053 -8.704230 1.014347 -0.507447 3.698325 -22.132580 -19.509379 7.891000 7.125000 0.000000 0.000000 5.024400 -50.323400 -0.660700 
-7.248608 17.957294 -0.431870 176.403695 87.734764 175.996342 -1.621748 -0.868469 0.063741 -8.019460 2.254302 -25.841295 1.788921 13.019852 38.741454 7.594427 -21.883742 12.216296 0.117900 -2.213700 -6.096500 2.767930 0.110490 0.655513 11.818945 8.393901 -19.222414 0.950563 -9.372758 26.161616 0.070853 -3.152275 9.528905 -0.083800 -1.867700 5.140300 2.265529 -0.656845 22.123830 3.062689 0.179106 6.569686 -0.185438 0.749898 -5.823168 2.277903 -0.407090 -7.203736 -2.884413 -0.645400 4.054565 -3.244700 -0.404600 1.353300 -1.470202 -5.408753 0.700838 -69.773004 11.265712 37.040389 27.624255 -37.862269 -11.939315 0.674075 -1.450877 8.521381 1.684812 1.333084 0.037500 -7.125000 0.000000 0.000000 -20.519800 32.136100 6.849600 1.853889 6.540724 2.398789 70.470235 -15.673917 35.026635 -27.112180 34.971651 -9.370213 1.006128 -0.502279 2.468715 -22.833060 -19.350310 8.074100 7.125000 0.000000 0.000000 4.305400 -50.243700 -0.557400 
-7.187643 17.976831 -0.429108 172.894606 88.025219 172.637625 -1.764455 -0.923871 0.079370 -8.186795 2.243193 -25.795611 1.407566 12.616703 37.254425 7.653407 -21.187264 11.744519 0.111700 -2.154700 -5.933300 2.795849 0.081528 0.670608 11.724213 8.691727 -18.993794 0.985528 -9.306654 25.979285 0.100318 -3.234062 9.378285 -0.087600 -1.908600 5.253100 2.166786 -0.563621 22.057490 2.990704 0.267119 6.566343 -0.246042 0.786310 -5.855233 2.488473 -0.367509 -7.776715 -2.916159 -0.480588 5.174123 -3.315800 -0.294300 1.778100 -1.480817 -5.313448 0.672371 -69.923245 11.922721 37.240450 26.697276 -37.152972 -11.347836 0.680603 -1.456399 8.908863 0.676151 1.399316 -0.010500 -7.125000 0.000000 0.000000 -21.316300 32.150100 7.142600 1.853221 6.583462 2.435801 70.331392 -15.367518 35.498486 -28.450374 36.118261 -10.128569 0.999624 -0.478058 1.126511 -23.092186 -19.267868 8.130800 7.125000 0.000000 0.000000 4.047500 -50.196500 -0.519200 
-7.126064 17.994323 -0.426858 168.387768 88.320374 168.292914 -1.912517 -0.977480 0.100413 -8.318719 2.195200 -25.705204 1.036857 12.199650 35.764736 7.695312 -20.471339 11.281816 0.108200 -2.120500 -5.838800 2.820132 0.050156 0.679846 11.639205 9.020841 -18.775145 1.014117 -9.252873 25.824177 0.142308 -3.347375 9.177811 -0.090100 -1.936300 5.329600 2.075947 -0.473551 21.952424 2.901664 0.350934 6.568109 -0.327584 0.818973 -5.860179 2.699433 -0.330377 -8.363742 -2.905737 -0.316353 6.370465 -3.374700 -0.178600 2.233200 -1.489786 -5.214708 0.646972 -70.020217 12.587606 37.489320 25.871159 -36.507248 -10.829250 0.686142 -1.459587 9.322865 -0.150927 1.453834 -0.051700 -7.125000 0.000000 0.000000 -21.968100 32.157600 7.387500 1.850596 6.627526 2.473210 70.221852 -15.097175 35.963814 -29.930257 37.337394 -10.988556 0.994432 -0.437523 -0.314851 -22.973959 -19.273864 8.090800 7.125000 0.000000 0.000000 4.187500 -50.201900 -0.537800 
-7.063770 18.001790 -0.425835 162.116263 88.612550 162.187618 -2.064896 -1.032937 0.122893 -8.412031 2.103436 -25.582239 0.689965 11.783193 34.319273 7.714739 -19.734031 10.829315 0.106100 -2.100800 -5.784300 2.834108 0.014710 0.682663 11.564011 9.377021 -18.580984 1.032435 -9.219309 25.718381 0.191854 -3.476856 8.925844 -0.091200 -1.947700 5.361200 1.991127 -0.387953 21.820096 2.799958 0.429737 6.574700 -0.426115 0.847063 -5.841396 2.904475 -0.291949 -8.945595 -2.856193 -0.151144 7.616432 -3.419700 -0.056400 2.709000 -1.497222 -5.115246 0.624411 -70.073387 13.254969 37.789383 25.137878 -35.923441 -10.374129 0.689376 -1.459779 9.729618 -0.758182 1.487858 -0.082600 -7.125000 0.000000 0.000000 -22.443800 32.153100 7.573900 1.846273 6.670949 2.510627 70.133794 -14.858135 36.421000 -31.542327 38.607772 -11.954090 0.989190 -0.384384 -1.806396 -22.554110 -19.361549 7.977600 7.125000 0.000000 0.000000 4.647900 -50.260700 -0.603800 
-7.002293 18.013963 -0.425733 152.382447 88.881504 152.623622 -2.234724 -1.090608 0.151268 -8.469281 1.964631 -25.401841 0.365248 11.366457 32.915152 7.706814 -18.958870 10.389592 0.105300 -2.092700 -5.762000 2.828554 -0.031216 0.681144 11.498968 9.744694 -18.401073 1.044590 -9.200139 25.646908 0.240835 -3.601549 8.633784 -0.090600 -1.941700 5.344500 1.907641 -0.306112 21.664985 2.688042 0.503630 6.583950 -0.541753 0.869639 -5.803823 3.105795 -0.256091 -9.496936 -2.777346 0.006934 8.882915 -3.453100 0.068000 3.192500 -1.503426 -5.018373 0.604737 -70.090361 13.916180 38.139743 24.487379 -35.396778 -9.972828 0.689804 -1.456588 10.092463 -1.138666 1.485950 -0.101300 -7.125000 0.000000 0.000000 -22.734600 32.124200 7.704300 1.840228 6.711853 2.547447 70.066551 -14.645589 36.853283 -33.279232 39.910274 -13.029545 0.982255 -0.322921 -3.307899 -21.918417 -19.507035 7.809500 7.125000 0.000000 0.000000 5.338900 -50.356000 -0.706500 
-6.941328 18.022760 -0.427165 135.369320 89.089577 135.775902 -2.437762 -1.148801 0.187641 -8.491971 1.772580 -25.180239 0.069724 10.966838 31.589220 7.665157 -18.139492 9.965734 0.105500 -2.094600 -5.767200 2.780747 -0.083445 0.669065 11.444037 10.109267 -18.243947 1.046487 -9.197676 25.628862 0.279063 -3.689970 8.312958 -0.088600 -1.919400 5.283100 1.793028 -0.228861 21.503681 2.571553 0.563768 6.590988 -0.656454 0.879867 -5.756405 3.270887 -0.268035 -9.974412 -2.964754 0.172299 10.451016 -3.181300 0.177700 3.365000 -1.514667 -4.907609 0.586411 -70.091976 14.575769 38.518687 23.914381 -34.926068 -9.620486 0.687232 -1.450202 10.385456 -1.307246 1.448468 -0.107800 -7.125000 0.000000 0.000000 -22.852300 32.071400 7.782200 1.827694 6.769611 2.590840 70.006005 -14.451103 37.275746 -35.112260 41.210195 -14.202449 0.971770 -0.258459 -4.745689 -21.148578 -19.667260 7.596100 7.125000 0.000000 0.000000 6.169500 -50.449800 -0.831400 
-6.881795 18.027772 -0.430234 105.753754 89.163697 106.317328 -2.680657 -1.168077 0.252722 -8.480929 1.525617 -24.926399 -0.208084 10.595129 30.326182 7.584158 -17.257954 9.593801 0.106000 -2.099400 -5.780400 2.686988 -0.105467 0.630431 11.398204 10.463731 -18.076858 1.039616 -9.190451 25.642451 0.302041 -3.722736 7.993028 -0.085600 -1.886800 5.192900 1.626838 -0.118216 21.346526 2.442718 0.640036 6.602787 -0.780321 0.906758 -5.703178 3.481465 -0.233453 -10.395076 -2.900473 0.327982 11.707203 -3.189400 0.304200 3.764800 -1.517930 -4.809949 0.569399 -70.083044 15.220953 38.923692 23.416119 -34.512878 -9.314733 0.682020 -1.441613 10.579469 -1.307625 1.393112 -0.105100 -7.125000 0.000000 0.000000 -22.835000 32.010600 7.811900 1.819882 6.813614 2.628224 69.951795 -14.271370 37.683287 -37.017577 42.482534 -15.460795 0.956641 -0.195681 -6.076357 -20.316587 -19.795808 7.344400 7.125000 0.000000 0.000000 7.055700 -50.500000 -0.960500 
-6.823796 18.029613 -0.435041 69.911143 89.031644 70.617303 -2.856735 -1.092030 0.347257 -8.435472 1.217947 -24.650322 -0.463465 10.266539 29.159872 7.463123 -16.317907 9.287038 0.108800 -2.127000 -5.856800 2.647283 -0.039359 0.560646 11.369673 10.804572 -17.906111 1.016612 -9.185984 25.720314 0.305457 -3.673770 7.662417 -0.082100 -1.847800 5.085200 1.489408 0.023668 21.206465 2.301359 0.752933 6.617142 -0.906067 0.969880 -5.650278 3.702099 -0.196002 -10.730648 -2.850016 0.479600 12.893776 -3.199700 0.430100 4.134900 -1.518698 -4.699027 0.550145 -70.075012 15.856761 39.337064 22.987246 -34.155546 -9.052004 0.674925 -1.431528 10.670858 -1.184342 1.320763 -0.096000 -7.125000 0.000000 0.000000 -22.717300 31.940900 7.807000 1.812228 6.872422 2.667584 69.902442 -14.096230 38.078296 -38.958550 43.697045 -16.779970 0.936094 -0.139600 -7.245377 -19.490963 -19.840157 7.061400 7.125000 0.000000 0.000000 7.912400 -50.460000 -1.070500 
-6.767946 18.027874 -0.441588 45.001746 88.753841 45.830757 -2.926305 -0.997292 0.426039 -8.341023 0.831252 -24.309700 -0.682754 9.956577 28.120459 7.303005 -15.353208 9.066067 0.115800 -2.193900 -6.041800 2.700383 0.038051 0.506349 11.369788 11.110989 -17.781944 0.989270 -9.209487 25.847379 0.285095 -3.555215 7.318226 -0.077600 -1.797400 4.945900 1.469906 0.131877 21.089895 2.173174 0.865767 6.631910 -1.029723 1.035354 -5.601964 3.929175 -0.156402 -10.985741 -2.826866 0.628500 13.998109 -3.216400 0.554600 4.472500 -1.518671 -4.591620 0.531387 -70.079887 16.475234 39.742461 22.622622 -33.851441 -8.829305 0.666951 -1.421603 10.662816 -1.006061 1.259367 -0.085100 -7.125000 0.000000 0.000000 -22.559100 31.885600 7.777000 1.803328 6.930387 2.705487 69.849729 -13.917529 38.469560 -40.898131 44.830200 -18.131856 0.911230 -0.090848 -8.228022 -18.680792 -19.800972 6.754800 7.125000 0.000000 0.000000 8.727500 -50.333200 -1.154900 
